<svg width="836" height="183" viewBox="0 0 836 183" fill="none" xmlns="http://www.w3.org/2000/svg">
<rect width="836" height="183" fill="white"/>
<rect width="836" height="183" fill="white"/>
<path d="M326.75 138.277C314.328 138.277 303.723 133.961 294.934 125.328C286.145 116.656 281.75 106.207 281.75 93.9805C281.75 81.7539 286.145 71.3242 294.934 62.6914C303.723 54.0195 314.328 49.6836 326.75 49.6836C339.172 49.6836 349.777 54.0195 358.566 62.6914C367.355 71.3242 371.75 81.7539 371.75 93.9805C371.75 106.207 367.355 116.656 358.566 125.328C349.777 133.961 339.172 138.277 326.75 138.277ZM326.75 118.18C333.469 118.18 339.074 115.855 343.566 111.207C348.098 106.52 350.363 100.777 350.363 93.9805C350.363 87.1836 348.098 81.4609 343.566 76.8125C339.074 72.125 333.469 69.7812 326.75 69.7812C320.07 69.7812 314.465 72.125 309.934 76.8125C305.441 81.4609 303.195 87.1836 303.195 93.9805C303.195 100.777 305.441 106.52 309.934 111.207C314.465 115.855 320.07 118.18 326.75 118.18Z" fill="#0B2135"/>
<path d="M381.434 136.988V73.7656H399.657V82.9062C403.212 75.9141 409.305 72.418 417.938 72.418V90.6406C414.188 90.6406 410.38 92.125 406.512 95.0938C402.684 98.0234 400.77 102.086 400.77 107.281V136.988H381.434Z" fill="#0B2135"/>
<path d="M450.254 138.277C442.207 138.277 435.664 135.074 430.625 128.668C425.586 122.223 423.066 114.449 423.066 105.348C423.066 96.2461 425.586 88.4922 430.625 82.0859C435.664 75.6406 442.207 72.418 450.254 72.418C453.574 72.418 456.797 73.2188 459.922 74.8203C463.086 76.4219 465.508 78.8633 467.188 82.1445V44H486.523V136.93H468.301V127.613C466.504 131.129 463.926 133.785 460.566 135.582C457.246 137.379 453.809 138.277 450.254 138.277ZM455.352 120.113C459.258 120.113 462.383 118.668 464.727 115.777C467.109 112.887 468.301 109.41 468.301 105.348C468.301 101.285 467.109 97.8086 464.727 94.918C462.383 92.0273 459.258 90.582 455.352 90.582C451.484 90.582 448.359 92.0273 445.977 94.918C443.594 97.8086 442.402 101.285 442.402 105.348C442.402 109.41 443.594 112.887 445.977 115.777C448.359 118.668 451.484 120.113 455.352 120.113Z" fill="#0B2135"/>
<path d="M527.29 138.277C517.72 138.277 509.966 135.113 504.028 128.785C498.091 122.457 495.122 114.566 495.122 105.113C495.2 95.6992 498.13 87.9062 503.911 81.7344C509.693 75.5234 516.958 72.418 525.708 72.418C534.302 72.418 541.216 75.4453 546.45 81.5C551.724 87.5156 554.36 94.9375 554.36 103.766C554.36 106.109 554.146 108.551 553.716 111.09H514.282C514.673 114.254 516.06 116.93 518.443 119.117C520.864 121.305 524.009 122.398 527.876 122.398C533.618 122.398 538.384 120.797 542.173 117.594L551.314 129.254C544.204 135.27 536.196 138.277 527.29 138.277ZM514.107 98.9609H535.669C535.552 95.8359 534.751 93.1406 533.267 90.875C531.782 88.6094 529.263 87.4766 525.708 87.4766C522.114 87.4766 519.341 88.6289 517.388 90.9336C515.435 93.1992 514.341 95.875 514.107 98.9609Z" fill="#0B2135"/>
<path d="M564.12 136.988V73.7656H582.343V82.9062C585.898 75.9141 591.991 72.418 600.624 72.418V90.6406C596.874 90.6406 593.066 92.125 589.198 95.0938C585.37 98.0234 583.456 102.086 583.456 107.281V136.988H564.12Z" fill="#0B2135"/>
<path d="M623.858 138.277C618.741 138.277 614.385 136.852 610.791 134C607.198 131.148 605.401 126.91 605.401 121.285C605.401 115.699 607.549 111.207 611.846 107.809C616.143 104.371 621.944 101.891 629.248 100.367L639.62 98.2578V94.8008C639.62 93.082 639.092 91.5781 638.038 90.2891C636.983 88.9609 635.323 88.2969 633.057 88.2969C628.799 88.2969 624.639 90.4453 620.577 94.7422L608.213 83.4922C614.932 76.1484 623.37 72.457 633.526 72.418C641.299 72.418 647.471 74.2344 652.041 77.8672C656.651 81.5 658.955 87.6328 658.955 96.2656V136.988H641.026V129.195C637.627 135.25 631.905 138.277 623.858 138.277ZM630.245 123.219C633.174 123.219 635.459 122.379 637.1 120.699C638.78 119.02 639.62 117.32 639.62 115.602V110.387L630.713 112.32C628.565 112.789 627.041 113.57 626.143 114.664C625.245 115.758 624.795 116.988 624.795 118.355C624.795 119.684 625.245 120.836 626.143 121.812C627.041 122.75 628.409 123.219 630.245 123.219Z" fill="#0B2135"/>
<path d="M707.415 138.277C703.86 138.277 700.403 137.379 697.044 135.582C693.723 133.785 691.165 131.129 689.368 127.613V136.93H671.145V44H690.481V82.1445C692.161 78.8633 694.563 76.4219 697.688 74.8203C700.852 73.2188 704.095 72.418 707.415 72.418C715.501 72.418 722.044 75.6406 727.044 82.0859C732.083 88.4922 734.602 96.2461 734.602 105.348C734.602 114.449 732.083 122.223 727.044 128.668C722.044 135.074 715.501 138.277 707.415 138.277ZM702.317 120.113C706.184 120.113 709.309 118.668 711.692 115.777C714.075 112.887 715.266 109.41 715.266 105.348C715.266 101.285 714.075 97.8086 711.692 94.918C709.309 92.0273 706.184 90.582 702.317 90.582C698.411 90.582 695.266 92.0273 692.884 94.918C690.54 97.8086 689.368 101.285 689.368 105.348C689.368 109.41 690.54 112.887 692.884 115.777C695.266 118.668 698.411 120.113 702.317 120.113Z" fill="#0B2135"/>
<path d="M763.55 136.988H744.214V44H763.55V136.988Z" fill="#0B2135"/>
<path d="M805.631 138.277C796.061 138.277 788.307 135.113 782.369 128.785C776.432 122.457 773.463 114.566 773.463 105.113C773.541 95.6992 776.471 87.9062 782.252 81.7344C788.033 75.5234 795.299 72.418 804.049 72.418C812.643 72.418 819.557 75.4453 824.791 81.5C830.065 87.5156 832.701 94.9375 832.701 103.766C832.701 106.109 832.487 108.551 832.057 111.09H792.623C793.014 114.254 794.401 116.93 796.783 119.117C799.205 121.305 802.35 122.398 806.217 122.398C811.959 122.398 816.725 120.797 820.514 117.594L829.655 129.254C822.545 135.27 814.537 138.277 805.631 138.277ZM792.448 98.9609H814.01C813.893 95.8359 813.092 93.1406 811.608 90.875C810.123 88.6094 807.604 87.4766 804.049 87.4766C800.455 87.4766 797.682 88.6289 795.729 90.9336C793.776 93.1992 792.682 95.875 792.448 98.9609Z" fill="#0B2135"/>
<path fill-rule="evenodd" clip-rule="evenodd" d="M190.478 166.7C227.362 142.71 253.271 91.8438 240.856 56.3095C228.442 20.9557 177.523 0.933836 123.727 0.0319515C70.1097 -0.869934 13.614 17.3481 2.27891 51.259C-9.23613 85.1698 24.5893 134.954 65.4317 161.289C106.094 187.624 153.774 190.69 190.478 166.7ZM167.348 91.6286C178.108 91.6286 183.234 83.924 183.234 78.7206C183.234 73.5171 178.108 65.8125 167.348 65.8125C156.588 65.8125 151.463 73.5171 151.463 78.7206C151.463 83.924 156.588 91.6286 167.348 91.6286ZM169.118 124.697C195.349 123.822 216.328 103.572 216.328 78.7206C216.328 53.3124 194.399 32.715 167.348 32.715C167.257 32.715 167.166 32.7152 167.075 32.7157H86.735C81.6629 32.7157 77.5512 36.8351 77.5512 41.9168C77.5512 46.9984 81.6629 51.1179 86.735 51.1179H128.16L128.144 51.1371C132.942 51.451 136.736 55.4416 136.736 60.3183C136.736 65.3999 132.616 69.5194 127.534 69.5194H119.348L119.347 69.5201H53.0611C47.989 69.5201 43.8773 73.6396 43.8773 78.7213C43.8773 83.8029 47.989 87.9224 53.0611 87.9224H127.652C132.68 87.9855 136.736 92.0805 136.736 97.1227C136.736 101.999 132.942 105.99 128.144 106.304L128.161 106.325H74.49C69.4179 106.325 65.3062 110.444 65.3062 115.526C65.3062 120.607 69.4179 124.727 74.49 124.727H168.369C168.621 124.727 168.871 124.717 169.118 124.697ZM150.864 137.545C152.065 141.118 149.558 146.233 145.988 148.646C142.435 151.058 137.821 150.75 133.885 148.102C129.932 145.453 126.659 140.447 127.773 137.037C128.87 133.627 134.338 131.795 139.527 131.886C144.734 131.977 149.662 133.99 150.864 137.545ZM161.676 137.545C160.474 141.118 162.982 146.233 166.552 148.646C170.104 151.058 174.719 150.75 178.654 148.102C182.607 145.453 185.881 140.447 184.766 137.037C183.669 133.627 178.202 131.795 173.012 131.886C167.806 131.977 162.877 133.99 161.676 137.545Z" fill="#7031F5"/>
</svg>
